<?xml version="1.0" encoding="utf-8"?>
<!-- Generator: Adobe Illustrator 17.0.2, SVG Export Plug-In . SVG Version: 6.00 Build 0)  -->
<!DOCTYPE svg PUBLIC "-//W3C//DTD SVG 1.1//EN" "http://www.w3.org/Graphics/SVG/1.1/DTD/svg11.dtd">
<svg version="1.1" xmlns="http://www.w3.org/2000/svg" xmlns:xlink="http://www.w3.org/1999/xlink" x="0px" y="0px" width="20px"
	 height="20px" viewBox="0 0 20 20" enable-background="new 0 0 20 20" xml:space="preserve">
<g id="Layer_1">
	<path fill-rule="evenodd" clip-rule="evenodd" d="M13.984,2.5v2.604c0,0-0.973,0-1.541,0c-0.566,0-0.867,0.602-0.867,1.027
		c0,0.425,0,0.92,0,0.92h2.408l-0.424,2.586h-1.984V17.5H8.141V9.673H6.016V7.051h2.125c0,0,0-0.495,0-1.682S9.379,2.5,11.576,2.5
		C13.772,2.5,13.984,2.5,13.984,2.5z"/>
	<path display="none" fill-rule="evenodd" clip-rule="evenodd" d="M14.834,4.483c0.106,0.068,0.201,0.151,0.287,0.244
		c0.062,0.067,0.127,0.064,0.227,0.049c0.873-0.132,1.771-0.671,1.771-0.671c0.004,0.4-0.652,1.267-1.24,1.64
		c0.006,0.068,0.047,0.03,0.076,0.025c0.461-0.063,0.904-0.183,1.338-0.352c0.053-0.02,0.111-0.038,0.164-0.058
		c0.047-0.002,0.051,0.022,0.035,0.058c0,0-0.562,0.85-1.393,1.443c-0.057,0.04-0.074,0.08-0.072,0.146
		c0.035,1.081-0.131,2.131-0.476,3.152c-0.154,0.461-0.348,0.906-0.574,1.338c-0.014,0.025-0.021,0.054-0.031,0.08
		c-0.051,0.087-0.068,0.162-0.152,0.258c-0.443,0.758-0.979,1.441-1.621,2.041c-0.014,0.014-0.024,0.034-0.039,0.048
		c-1.082,0.994-2.49,1.564-2.49,1.564c-0.463,0.212-0.949,0.344-1.443,0.452c-0.793,0.175-1.598,0.226-2.408,0.197
		c-0.225-0.008-0.449-0.031-0.674-0.047c0,0-0.432-0.043-0.838-0.149c-0.406-0.105-0.809-0.217-1.199-0.369
		C3.527,15.359,3,15.099,2.5,14.766c1.662,0.146,3.162-0.263,4.496-1.265c0,0-0.391-0.044-0.836-0.174
		c-0.66-0.192-1.188-0.591-1.596-1.144c-0.029-0.027-0.061-0.066-0.084-0.101c-0.137-0.207-0.238-0.433-0.326-0.663
		c-0.014-0.034-0.027-0.071-0.002-0.108c0.088,0.009,0.174,0.017,0.262,0.025c0.223,0.017,0.443,0.011,0.666,0
		c0.18-0.01,0.311-0.075,0.311-0.075s-0.209-0.074-0.389-0.155c-0.404-0.185-0.773-0.414-1.08-0.74
		C3.394,9.803,3.111,9.136,3.064,8.366c-0.004-0.058,0-0.114,0-0.187c0.33,0.156,0.65,0.298,1.006,0.334
		c0.043-0.002,0.084,0.008,0.125,0.021c0.031,0.002,0.062,0.004,0.096,0.006C4.32,8.545,4.359,8.58,4.371,8.518
		C4.336,8.49,4.301,8.465,4.267,8.439C4.232,8.415,4.203,8.387,4.172,8.362c-0.045-0.058-0.094-0.109-0.152-0.15
		C3.986,8.193,3.961,8.169,3.943,8.136c-0.396-0.437-0.67-0.935-0.791-1.515C3.072,6.248,3.06,5.872,3.115,5.497
		C3.152,5.233,3.26,4.939,3.26,4.939C3.32,4.777,3.394,4.626,3.474,4.476c0.043-0.079,0.07-0.015,0.098,0.018
		c0.336,0.401,0.703,0.773,1.104,1.11C4.83,5.732,4.984,5.861,5.152,5.971c0.025,0.017,0.057,0.026,0.076,0.051
		c0.447,0.344,0.939,0.614,1.449,0.851c0.811,0.376,1.664,0.612,2.551,0.73c0.049,0.007,0.102,0.005,0.15,0.007
		c0.111,0,0.225-0.01,0.336,0.008C9.806,7.632,9.84,7.591,9.826,7.502C9.795,7.308,9.789,7.111,9.785,6.914
		c-0.006-0.29,0.017-0.576,0.15-0.843c0.096-0.289,0.227-0.563,0.381-0.824c0.022-0.038,0.043-0.071,0.076-0.106l0,0
		c0.051-0.096,0.101-0.19,0.195-0.254c0.01-0.01,0.019-0.019,0.029-0.028c0.053-0.062,0.106-0.126,0.174-0.173
		c0.428-0.378,0.912-0.651,1.475-0.764c0.781-0.155,1.518-0.045,2.213,0.357C14.607,4.354,14.748,4.428,14.834,4.483z"/>
	<path display="none" fill-rule="evenodd" clip-rule="evenodd" d="M7.89,17.204c0.111-0.192,0.205-0.356,0.299-0.521
		c0.318-0.559,0.483-1.175,0.635-1.794c0.1-0.41,0.205-0.819,0.307-1.229c0.008-0.028,0.02-0.054,0.035-0.097
		c0.164,0.249,0.363,0.445,0.617,0.577c0.231,0.121,0.465,0.22,0.725,0.276c0.295,0.063,0.586,0.073,0.877,0.036
		c0.324-0.04,0.639-0.118,0.945-0.236c0.787-0.304,1.371-0.84,1.814-1.536c0.484-0.766,0.75-1.612,0.85-2.511
		c0.066-0.605,0.092-1.209-0.066-1.803c-0.4-1.493-1.365-2.479-2.789-3.028c-0.832-0.322-1.701-0.378-2.584-0.284
		C8.693,5.147,7.88,5.393,7.148,5.862C5.962,6.623,5.21,7.687,4.978,9.086c-0.129,0.787-0.047,1.561,0.289,2.294
		c0.238,0.521,0.607,0.922,1.139,1.16c0.246,0.11,0.387,0.046,0.455-0.213c0.051-0.196,0.098-0.394,0.15-0.59
		c0.029-0.114,0.018-0.221-0.059-0.311c-0.676-0.785-0.658-1.683-0.394-2.601C6.96,7.43,8.183,6.457,9.636,6.331
		c0.619-0.054,1.229-0.019,1.811,0.209c1.078,0.421,1.658,1.227,1.734,2.371c0.066,0.972-0.092,1.913-0.506,2.803
		c-0.209,0.445-0.488,0.842-0.889,1.134c-0.352,0.258-0.756,0.383-1.189,0.301c-0.742-0.142-1.113-0.782-0.943-1.441
		c0.152-0.589,0.34-1.168,0.502-1.754c0.098-0.347,0.18-0.696,0.147-1.062c-0.076-0.819-0.83-1.227-1.557-0.833
		C8.298,8.3,8.06,8.703,7.933,9.176c-0.16,0.594-0.106,1.18,0.098,1.758c0.025,0.077,0.035,0.174,0.016,0.253
		c-0.309,1.338-0.625,2.674-0.938,4.01c-0.111,0.473-0.133,0.953-0.129,1.437c0.002,0.071,0,0.142,0,0.233
		c-1.264-0.568-2.303-1.399-3.084-2.526c-1.264-1.818-1.68-3.825-1.201-5.988C3.634,4.097,8.066,1.539,12.22,2.84
		c4.143,1.299,6.41,5.831,4.709,10.015c-0.781,1.921-2.166,3.289-4.078,4.086C11.245,17.61,9.587,17.654,7.89,17.204z"/>
	<polygon display="none" fill="#FFFFFF" stroke="#000000" stroke-miterlimit="10" points="10,7.18 6.881,4.062 2.5,8.441 10,15.938 
		17.5,8.441 13.119,4.062 	"/>
	<polygon display="none" stroke="#000000" stroke-miterlimit="10" points="10,7.18 6.881,4.062 2.5,8.441 10,15.938 17.5,8.441 
		13.119,4.062 	"/>
	<polyline display="none" fill="none" stroke="#000000" stroke-width="2" stroke-miterlimit="10" points="7,16.5 13,10 7,3.5 	"/>
	<polyline display="none" fill="none" stroke="#000000" stroke-width="2" stroke-miterlimit="10" points="13,3.5 7,10 13,16.5 	"/>
</g>
<g id="English" display="none">
</g>
<g id="French" display="none">
</g>
<g id="German" display="none">
</g>
<g id="Mandarin" display="none">
</g>
<g id="Russian" display="none">
</g>
<g id="Spanish" display="none">
</g>
<g id="Portuguese" display="none">
</g>
<g id="Swedish" display="none">
</g>
<g id="Japanese">
</g>
</svg>
