<?xml version="1.0" encoding="utf-8"?>
<!-- Generator: Adobe Illustrator 18.1.1, SVG Export Plug-In . SVG Version: 6.00 Build 0)  -->
<!DOCTYPE svg PUBLIC "-//W3C//DTD SVG 1.1//EN" "http://www.w3.org/Graphics/SVG/1.1/DTD/svg11.dtd">
<svg version="1.1" id="Ebene_1" xmlns="http://www.w3.org/2000/svg" xmlns:xlink="http://www.w3.org/1999/xlink" x="0px" y="0px"
	 width="16px" height="16px" viewBox="0 0 16 16" enable-background="new 0 0 16 16" xml:space="preserve">
<g>
	<path fill="#FFE05F" d="M7.4,0.8c0.3-0.5,0.8-0.5,1.1,0l2,2.9c0.3,0.5,1,1,1.5,1.1l3.4,1C16,6,16.1,6.5,15.8,6.9l-2.1,2.8
		c-0.3,0.4-0.6,1.2-0.6,1.8l0.1,3.5c0,0.5-0.4,0.8-0.9,0.7l-3.3-1.2c-0.5-0.2-1.4-0.2-1.9,0l-3.3,1.2c-0.5,0.2-0.9-0.1-0.9-0.7
		l0.1-3.5c0-0.5-0.2-1.4-0.6-1.8L0.2,6.9C-0.1,6.5,0,6,0.5,5.8l3.4-1c0.5-0.2,1.2-0.7,1.5-1.1L7.4,0.8z"/>
</g>
</svg>
